<svg xmlns="http://www.w3.org/2000/svg" xmlns:xlink="http://www.w3.org/1999/xlink" width="402" height="32" viewBox="0 0 402 32"><defs><path id="1178a" d="M378 222c0-6.627 5.373-12 12-12s12 5.373 12 12-5.373 12-12 12-12-5.373-12-12z"/><path id="1178c" d="M565.44 232.3v-4.06h28.16v4.06zm-8.06 0v-4.06h4.04v4.06zm8.06-8.12v-4.06h22.13v4.06zm-8.06 0v-4.06h4.04v4.06zm8.06-8.12V212h28.16v4.06zm-8.06 0V212h4.04v4.06z"/><path id="1178d" d="M527.09 233.937l-1.443 1.443-9.577-9.578a9.97 9.97 0 0 1-6.61 2.498c-5.556 0-10.06-4.544-10.06-10.15 0-5.606 4.504-10.15 10.06-10.15 5.556 0 10.06 4.544 10.06 10.15 0 2.315-.768 4.449-2.061 6.156zm-17.62-7.657c4.446 0 8.05-3.635 8.05-8.12 0-4.485-3.604-8.12-8.05-8.12-4.446 0-8.05 3.635-8.05 8.12 0 4.485 3.604 8.12 8.05 8.12z"/><path id="1178e" d="M428 211.5a1.5 1.5 0 0 1 1.5-1.5h37a1.5 1.5 0 0 1 1.5 1.5v21a1.5 1.5 0 0 1-1.5 1.5h-37a1.5 1.5 0 0 1-1.5-1.5zm2 20a.5.5 0 0 0 .5.5h35a.5.5 0 0 0 .5-.5v-18.9a.5.5 0 0 0-.5-.5h-35a.5.5 0 0 0-.5.5zm2-17a.5.5 0 0 1 .5-.5h31a.5.5 0 0 1 .5.5v15a.5.5 0 0 1-.5.5h-31a.5.5 0 0 1-.5-.5zm38 12.5v-10h1.006l2.994 3v4l-2.994 3z"/><path id="1178f" d="M325.98 233.193c0 .44-.287.582-.637.318l-6.871-5.914c-.139.03-.283.047-.43.047h-6.062c-1.1 0-2-.9-2-2v-8c0-1.1.9-2 2-2h6.062c.127 0 .252.012.372.035l6.93-5.904c.35-.262.635-.12.635.32zm18.04 3.846a1 1 0 0 1-.768-1.64c6.924-8.3 6.924-19.454 0-27.756a1 1 0 0 1 .128-1.408.994.994 0 0 1 1.408.126c7.564 9.07 7.564 21.254 0 30.318a.999.999 0 0 1-.768.36m-6.543-4.037a.999.999 0 0 1-.764-1.646c4.906-5.792 4.906-13.88 0-19.67a1.001 1.001 0 0 1 1.528-1.294c5.548 6.552 5.548 15.704 0 22.256a1 1 0 0 1-.764.354m-6.58-4.06a1 1 0 0 1-.75-1.66c2.982-3.393 2.982-8.13 0-11.523a1 1 0 0 1 1.5-1.32c3.668 4.168 3.668 9.994 0 14.162a.995.995 0 0 1-.75.34"/><path id="1178g" d="M374 222c0-8.837 7.163-16 16-16s16 7.163 16 16-7.163 16-16 16-16-7.163-16-16z"/><path id="1178b" d="M376 236v-14h28v14z"/><path id="1178j" d="M269 235.64l-4-4c2-1 .867-1 4-1 2.979 0 2 0 4 1zm9.445-8.306l-1.192 1.306c-2.277-2.506-5.261-3.75-8.249-3.755-2.992.004-5.975 1.249-8.253 3.755l-1.188-1.306c2.604-2.857 6.025-4.292 9.441-4.292 3.408 0 6.833 1.435 9.44 4.292zm5.306-5.828l-1.188 1.306c-3.75-4.12-8.649-6.168-13.563-6.172-4.91 0-9.812 2.053-13.56 6.168l-1.187-1.306c4.074-4.47 9.412-6.71 14.747-6.71 5.339 0 10.678 2.24 14.751 6.714zm5.249-5.772l-1.188 1.306c-5.196-5.711-11.996-8.557-18.812-8.56-6.808.003-13.616 2.853-18.812 8.564L249 215.738c5.522-6.063 12.763-9.098 20-9.098 7.237-.004 14.473 3.031 20 9.094z"/><path id="1178k" d="M227.976 207.64v20h-8.062l-1.814-2h7.938v-16h-32.062v16h7.75l-1.812 2H192v-15.556l.008-4.444zm-27.877 27.938c-.91 0-1.273-.644-.626-1.296l9.72-11.39c.765-.762.943-.77 1.724.008l9.703 11.382c.655.652.29 1.296-.62 1.296z"/><clipPath id="1178i"><use fill="#fff" xlink:href="#1178a"/></clipPath><clipPath id="1178h"><use xlink:href="#1178b"/></clipPath></defs><g><g transform="translate(-192 -206)"><g opacity=".8"><use xlink:href="#1178c"/></g><g opacity=".8"><use xlink:href="#1178d"/></g><g opacity=".8"><use xlink:href="#1178e"/></g><g opacity=".8"><use xlink:href="#1178f"/></g><g><g><use fill="#333" xlink:href="#1178g"/></g><g><g/><g clip-path="url(#1178h)"><use fill="#fff" fill-opacity="0" stroke="#fff" stroke-miterlimit="50" stroke-width="4" clip-path="url(&quot;#1178i&quot;)" xlink:href="#1178a"/></g></g></g><g opacity=".8"><use xlink:href="#1178j"/></g><g opacity=".8"><use xlink:href="#1178k"/></g></g></g></svg>