<svg width="70" height="70" viewBox="0 0 70 70" fill="none" xmlns="http://www.w3.org/2000/svg">
<circle cx="35" cy="35" r="35" fill="white"/>
<path d="M10.175 37.48L9.881 36.016L10.787 35.834L11.573 39.744L10.667 39.926L10.373 38.462L5.993 39.342L5.795 38.36L10.175 37.48ZM12.425 42.918L12.788 43.851L7.762 45.805L7.399 44.873L12.425 42.918ZM10.204 50.644L9.619 49.832L13.996 46.684L14.653 47.596L12.663 50.592L16.138 49.658L16.794 50.57L12.418 53.718L11.833 52.906L14.533 50.963L11.63 51.781L11.207 51.193L12.905 48.701L10.204 50.644ZM15.532 57.011L18.827 52.745L21.467 54.782L20.902 55.513L19.055 54.088L18.363 54.984L19.845 56.127L19.28 56.858L17.798 55.715L16.89 56.891L18.798 58.363L18.233 59.095L15.532 57.011ZM28.015 63.327L27.036 63.115L28.176 57.848L29.276 58.086L29.806 61.642L31.76 58.622L32.86 58.861L31.72 64.127L30.74 63.916L31.444 60.666L29.836 63.216L29.128 63.063L28.718 60.076L28.015 63.327ZM40.615 63.847L39.542 63.967L39.012 62.747L37.312 62.937L37.062 64.243L35.99 64.363L37.207 58.805L38.202 58.695L40.615 63.847ZM38.6 61.873L37.826 60.077L37.467 62L38.6 61.873ZM43.246 58.514L41.866 59.089L41.511 58.236L45.195 56.703L45.55 57.556L44.17 58.13L45.888 62.251L44.963 62.636L43.246 58.514ZM49.35 55.411L48.155 56.307L47.6 55.568L50.793 53.176L51.347 53.915L50.152 54.811L52.832 58.383L52.031 58.983L49.35 55.411ZM57.296 54.382L52.892 51.273L54.817 48.551L55.572 49.084L54.225 50.989L55.15 51.642L56.23 50.114L56.985 50.647L55.905 52.175L57.119 53.032L58.51 51.064L59.265 51.597L57.296 54.382ZM59.186 43.207C59.849 43.481 60.208 44.022 60.138 44.693L62.938 44.236L62.51 45.267L59.806 45.714L59.606 46.198L61.755 47.088L61.371 48.012L56.391 45.949L57.142 44.135C57.544 43.168 58.333 42.853 59.187 43.207H59.186ZM58.723 45.911L59.095 45.015C59.257 44.623 59.152 44.355 58.775 44.198C58.397 44.042 58.133 44.158 57.97 44.548L57.599 45.445L58.723 45.911ZM59.74 36.68L60.2 37.521C59.81 37.688 59.601 37.928 59.58 38.228C59.56 38.528 59.753 38.756 60.038 38.776C60.376 38.799 60.655 38.447 60.892 38.024C61.22 37.398 61.678 36.572 62.607 36.643C63.652 36.714 64.237 37.433 64.166 38.477C64.1439 38.9207 63.9616 39.3414 63.653 39.661C63.3549 39.9714 62.9598 40.1707 62.533 40.226L62.081 39.385C62.825 39.227 63.211 38.898 63.245 38.391C63.277 37.923 63.062 37.677 62.593 37.645C62.278 37.624 62.009 37.953 61.786 38.393C61.473 39.012 61.009 39.813 60.019 39.731C59.8254 39.7216 59.6358 39.673 59.4615 39.5884C59.2872 39.5037 59.1318 39.3846 59.0047 39.2383C58.8777 39.092 58.7815 38.9215 58.7221 38.737C58.6627 38.5525 58.6412 38.358 58.659 38.165C58.709 37.435 59.066 36.943 59.74 36.68ZM35 70C54.33 70 70 54.33 70 35C70 15.67 54.33 0 35 0C15.67 0 0 15.67 0 35C0 54.33 15.67 70 35 70Z" fill="#FF8326"/>
</svg>
