<svg version="1" xmlns="http://www.w3.org/2000/svg" width="933.333" height="933.333" viewBox="0 0 700.000000 700.000000"><path d="M329 .6c-1.9.2-8.7.9-15 1.5-64.7 6.1-129.4 32.6-182.5 74.6-14.1 11.1-43.7 40.7-54.8 54.8-41.3 52.1-66.2 112-74.4 178.5-2.4 20-2.4 60 0 80 8.2 66.5 33.1 126.4 74.4 178.5 11.1 14.1 40.7 43.7 54.8 54.8 52.1 41.3 112 66.2 178.5 74.4 20 2.4 60 2.4 80 0 66.5-8.2 126.4-33.1 178.5-74.4 14.1-11.1 43.7-40.7 54.8-54.8 41.3-52.1 66.2-112 74.4-178.5 2.4-20 2.4-60 0-80-8.2-66.5-33.1-126.4-74.4-178.5-11.1-14.1-40.7-43.7-54.8-54.8-51.8-41-112.3-66.3-177.5-74.2C378.4 1 336.8-.3 329 .6zM111.9 377.9c2.1 10.5 3.6 19.3 3.2 19.5-.3.2-2.4.7-4.7 1l-4.1.7-1.2-7c-.9-4.8-1.7-7.1-2.7-7.1-.7 0-10 1.8-20.5 4-10.6 2.2-19.8 4-20.5 4-1.3 0-1.8-1.1-2.9-6.5l-.6-3 21.9-4.4 21.9-4.3-1.3-6.2c-1.8-8.5-1.9-8.4 2.9-9.4 2.3-.5 4.3-.8 4.5-.7.1.1 1.9 8.8 4.1 19.4zm521.8-9.2c11.1 5.1 10.1 24.5-1.5 31.1-5.5 3.1-6.9 2.8-9.2-1.8l-2-3.9 4.4-2c5-2.2 6.6-4.4 6.6-9.3 0-4.2-1.5-5.8-5.5-5.8-3.6 0-5.9 2.1-9.8 9-4.4 7.6-7.9 10.3-14 10.8-6.5.5-10.9-1.4-13.7-6.1-2.4-3.9-2.6-11.6-.5-15.6 1.4-2.7 6.9-8.1 8.3-8.1.4 0 1.7 1.7 2.9 3.8l2.2 3.9-3 2.5c-3.4 3.1-3.8 6.7-.9 9.3 3 2.8 6.2.7 11.4-7.2 8.3-13 13.9-15.4 24.3-10.6zm-507.6 64.9c1.1 2.6 1.8 4.8 1.7 4.9-.7.6-50.1 19.5-50.3 19.3-.1-.2-.9-2.2-1.8-4.6-1.7-4.2-1.7-4.3.5-5.2 1.7-.8 45-17.9 47.6-18.9.1-.1 1.2 2 2.3 4.5zm466.4-1c4.9 2.3 7.6 5.7 8.2 10.4.5 3.6.9 4.1 2.7 3.6 5.5-1.3 24.6-3.9 25.1-3.4.3.2-.4 2.5-1.5 5l-2 4.5-7.2 1.2c-19.6 3.2-19.5 3.1-20.7 5.7-.9 2.1-.8 2.6 1.2 3.3 3.9 1.5 18.2 7.5 18.6 7.8.9.6-3.2 9.4-4.3 9-4.4-1.8-48.2-20-48.4-20.1-.4-.4 7.7-19.9 9.4-22.3 3.7-5.8 12.2-7.9 18.9-4.7zm-448 40.8l1.8 3.3-9 13.4c-4.9 7.4-9.2 13.9-9.6 14.6-.5.8.1.9 2.5.3 1.8-.5 9.1-2.5 16.3-4.5 7.1-1.9 13.5-3.5 14.1-3.5.6 0 2.5 2 4.2 4.3l3.1 4.4-21.7 15.7-21.7 15.6-2.7-3.2c-1.5-1.8-2.8-3.8-2.8-4.3 0-.6 5.6-5.1 12.5-9.9 6.9-4.9 12.4-9.1 12.2-9.2-.2-.2-2.5.3-5.2 1.2-2.8.8-8.9 2.5-13.6 3.8l-8.7 2.4-2.1-2.9-2.2-2.9 7.4-10.8c4-5.9 7.8-11.4 8.2-12.2.8-1.4-5 2.6-18.9 12.7-3.2 2.4-6.1 4.3-6.5 4.3-.3 0-1.8-1.8-3.3-3.9l-2.7-3.8 21.7-15.6c23.8-17.1 22.7-16.7 26.7-9.3zM552 488.2c1.7 1.2 3 2.5 3 3 0 .4-2.7 4.5-6 9.1-3.3 4.7-6 8.8-6 9.3 0 .9 7.3 6.4 8.3 6.4.3 0 2.9-3.4 5.7-7.5l5.2-7.4 3.9 2.6 3.9 2.5-5.5 7.8-5.5 7.7 6.1 4.3c3.4 2.4 6.4 3.8 6.8 3.3.6-1 12.3-17.5 12.7-18.2.5-.6 7.4 4 7.4 5 0 1.2-17.9 26.3-19 26.7-.6.2-10.7-6.5-22.5-14.8-19.9-14-21.5-15.4-20.3-17.1 13.5-19.5 17.4-24.8 18.1-24.9.4 0 2.1 1 3.7 2.2zm-350.5 49.4c6.9 5.3 12.5 10 12.5 10.4 0 .4-1 2-2.2 3.6-1.2 1.6-2.3 3.1-2.4 3.3-.2.2-4.5-2.9-9.5-6.8l-9.3-7.2-1.8 2.3c-5.1 6.3-5.3 6.8-3.1 8.3 5 3.5 12.3 9.6 12.3 10.3-.1 1-4.7 6.2-5.6 6.2-.3 0-3.4-2.3-6.9-5-3.5-2.8-6.7-5-7.3-5-.5 0-2.8 2.5-5.1 5.4l-4.1 5.5 8.8 6.7c4.8 3.7 9 7 9.5 7.4.4.4-.5 2.3-2.1 4.3l-2.9 3.6-12.9-9.9c-7.1-5.5-12.8-10.6-12.8-11.3.1-1.7 30.5-41.6 31.7-41.6.4-.1 6.4 4.2 13.2 9.5zm309.3-2.3c1.2 1.8 2.2 3.6 2.2 3.8 0 .3-2.5 2.3-5.5 4.5-3 2.1-5.3 4.5-5 5.1.2.7 5.8 8.4 12.3 17 6.5 8.7 12.1 16.3 12.5 17 .4.6-.9 2.4-3.1 4.2l-3.8 3L507 572l-13.4-17.9-4.3 3.2c-8.6 6.3-7.7 6.1-10.6 2l-2.6-3.6 15.7-11.8c8.6-6.5 15.9-11.9 16.2-11.9.3 0 1.5 1.5 2.8 3.3zm-57.3 35.3c.8 2 1.5 4 1.5 4.4 0 .4-2.9 1.9-6.5 3.5-5 2.1-6.4 3.1-6 4.4.3.9 4.1 10.1 8.5 20.6l7.9 19-3.7 1.7c-2 .9-4.2 1.7-4.7 1.7-.6.1-3.1-4.7-5.5-10.7-2.4-5.9-6.2-15.1-8.5-20.4l-4.1-9.7-6.8 2.9-6.8 2.9-1.8-4.2c-1.8-3.9-1.8-4.2-.2-5 2.4-1 34.6-14.6 34.9-14.7.2 0 1 1.6 1.8 3.6zm-164.2 9.5c2 .5 3.7 1.3 3.7 1.7 0 1.6 4.9 33.5 5.2 33.7.2.3 12.9-18.9 18.8-28.5.3-.4 2.9-.3 5.8.2 4.3.9 5.2 1.4 5.1 3.2 0 1.1-2.4 12.9-5.3 26.1l-5.3 24-3.9-.3c-2.1-.2-4.3-.7-4.8-1.3-.6-.5.2-6.4 2.2-15.5 1.8-8.1 3.1-14.8 3-15-.2-.1-3.5 4.7-7.3 10.8-3.9 6.1-7.3 11.5-7.6 12-.3.5-2.2.6-4.2.3l-3.5-.7-1.8-13.9c-1-7.6-2-13.6-2.3-13.3-.3.3-2 6.9-3.7 14.7l-3.1 14.2-3.8-.2c-2.1-.2-4.3-.7-4.9-1.3-.6-.6.9-9.4 4.3-25.7 2.9-13.7 5.5-25.1 5.8-25.6.6-1 3.1-.9 7.6.4zm104.9 32.8c6.5 13.9 11.7 25.5 11.6 25.6-.2.2-2.5.5-5.3.6l-5 .3-2.2-4.4c-1.2-2.5-2.2-5.1-2.2-5.8-.1-1.3-2.9-1.5-11.8-.6l-6.1.7-1.3 6.6-1.4 6.6-5.2.5c-2.9.3-5.3.5-5.3.3 0-.3 11-50.5 11.6-52.9.6-2.3 3.3-3.3 8.3-3 2.2.1 3.7 2.9 14.3 25.5z"/><path d="M582.6 442.1c-1.4.9-6.6 10.5-6.6 12.3 0 .2.8.6 1.8.9.9.3 3.4 1.2 5.5 2.1l3.8 1.7 1.8-4.3c3.1-7.2 3.3-8.4 1.4-10.6-2.3-2.6-5.3-3.4-7.7-2.1zM377.2 607c-.6 3-1.4 7.3-1.8 9.4l-.7 3.9 3.3-.6c1.8-.4 4.3-.7 5.6-.7 2.6 0 2.5-.8-2.5-11.5l-2.8-6-1.1 5.5z"/></svg>