<svg width="212" height="60" viewBox="0 0 212 60" fill="none" xmlns="http://www.w3.org/2000/svg">
<path d="M0 30C0 13.431 13.431 0 30 0H182C198.569 0 212 13.431 212 30C212 46.569 198.569 60 182 60H30C13.431 60 0 46.569 0 30Z" fill="black"/>
<path d="M50.4568 16.576C51.6398 15.136 52.4498 13.178 52.2248 11.19C50.5128 11.264 48.3708 12.342 47.1378 13.75C46.0468 14.991 45.0718 17.025 45.3238 18.937C47.2468 19.077 49.2228 17.993 50.4568 16.576V16.576ZM54.7888 29.056C54.7498 24.812 58.3618 22.748 58.5268 22.652C56.4808 19.752 53.3108 19.355 52.1968 19.323C49.5338 19.051 46.9508 20.873 45.5938 20.873C44.2108 20.873 42.1218 19.35 39.8708 19.394C36.9738 19.438 34.2628 21.069 32.7768 23.602C29.7088 28.767 31.9968 36.358 34.9368 40.532C36.4068 42.579 38.1238 44.86 40.3728 44.78C42.5728 44.693 43.3938 43.417 46.0488 43.417C48.6788 43.417 49.4508 44.78 51.7448 44.729C54.1048 44.693 55.5918 42.675 57.0108 40.612C58.7098 38.269 59.3918 35.96 59.4188 35.842C59.3648 35.823 54.8348 34.14 54.7888 29.056V29.056Z" fill="white"/>
<path d="M176.62 36.852C176.64 36.018 176.451 35.3 176.06 34.693C175.56 33.911 174.792 33.521 173.761 33.521C172.818 33.521 172.049 33.901 171.464 34.665C170.984 35.273 170.698 36.002 170.61 36.849L176.62 36.852ZM179.257 38.854H170.607C170.639 40.103 171.057 41.059 171.861 41.717C172.591 42.305 173.533 42.6 174.691 42.6C175.971 42.6 177.141 42.402 178.191 42.003L178.643 43.951C177.415 44.473 175.965 44.732 174.292 44.732C172.279 44.732 170.699 44.155 169.55 43.004C168.403 41.852 167.828 40.303 167.828 38.363C167.828 36.458 168.362 34.871 169.432 33.605C170.552 32.254 172.066 31.578 173.97 31.578C175.84 31.578 177.257 32.254 178.219 33.605C178.98 34.676 179.363 36.004 179.363 37.58C179.37 38.007 179.335 38.434 179.257 38.854V38.854ZM165.555 34.251C164.539 34.251 163.755 34.622 163.202 35.371C162.722 36.029 162.482 36.861 162.482 37.866V44.498H159.595V35.839C159.598 34.5122 159.57 33.1855 159.512 31.86H162.026L162.131 34.278H162.211C162.517 33.448 162.996 32.777 163.654 32.275C164.261 31.8351 164.991 31.5981 165.74 31.598C166.007 31.598 166.248 31.616 166.462 31.649L166.465 34.329C166.165 34.2761 165.86 34.25 165.555 34.251V34.251ZM154.087 38.139C154.087 36.981 153.83 35.988 153.314 35.157C152.709 34.153 151.842 33.651 150.72 33.651C149.564 33.651 148.677 34.153 148.073 35.157C147.556 35.987 147.299 36.998 147.299 38.191C147.299 39.351 147.556 40.346 148.073 41.175C148.698 42.178 149.568 42.68 150.696 42.68C151.799 42.68 152.664 42.168 153.29 41.15C153.82 40.299 154.087 39.3 154.087 38.139V38.139ZM157.089 38.074C157.089 40.017 156.517 41.612 155.376 42.859C154.183 44.144 152.595 44.784 150.616 44.784C148.705 44.784 147.186 44.169 146.054 42.94C144.921 41.708 144.354 40.157 144.354 38.285C144.354 36.326 144.94 34.722 146.106 33.475C147.276 32.226 148.85 31.602 150.829 31.602C152.737 31.602 154.269 32.218 155.429 33.448C156.537 34.642 157.089 36.183 157.089 38.074V38.074ZM139.572 33.963V40.096C139.572 41.656 140.132 42.433 141.256 42.433C141.772 42.433 142.199 42.391 142.538 42.303L142.618 44.434C142.049 44.641 141.3 44.744 140.373 44.744C139.233 44.744 138.343 44.406 137.699 43.73C137.059 43.053 136.737 41.92 136.737 40.325V33.958H134.842V31.851H136.737V29.539L139.572 28.707V31.851H142.753V33.963H139.572ZM133.196 39.581C133.196 41.073 132.659 42.286 131.593 43.223C130.42 44.245 128.781 44.757 126.681 44.757C124.741 44.757 123.185 44.394 122.011 43.665L122.68 41.325C123.947 42.055 125.338 42.418 126.853 42.418C127.943 42.418 128.79 42.178 129.393 41.703C130 41.226 130.306 40.589 130.306 39.793C130.306 39.081 130.052 38.483 129.556 37.998C129.056 37.513 128.229 37.061 127.067 36.646C123.91 35.502 122.33 33.828 122.33 31.626C122.33 30.187 122.889 29.01 124.002 28.089C125.116 27.169 126.593 26.71 128.43 26.71C130.071 26.71 131.439 26.988 132.524 27.542L131.799 29.832C130.777 29.294 129.624 29.026 128.334 29.026C127.315 29.026 126.516 29.269 125.944 29.754C125.463 30.187 125.219 30.715 125.219 31.342C125.219 32.034 125.497 32.608 126.049 33.059C126.529 33.473 127.405 33.925 128.67 34.41C130.223 35.018 131.364 35.727 132.094 36.541C132.83 37.355 133.196 38.371 133.196 39.581V39.581ZM112.682 35.081C112.057 34.251 111.222 33.834 110.172 33.834C109.46 33.834 108.812 34.066 108.232 34.524C107.657 34.9779 107.256 35.6165 107.097 36.332C107.009 36.679 106.962 36.962 106.962 37.186V39.296C106.962 40.213 107.252 40.989 107.83 41.624C108.409 42.254 109.162 42.574 110.09 42.574C111.179 42.574 112.025 42.164 112.629 41.351C113.235 40.536 113.539 39.461 113.539 38.126C113.539 36.896 113.253 35.881 112.682 35.082V35.081ZM114.68 43.119C113.604 44.229 112.269 44.784 110.674 44.784C108.954 44.784 107.716 44.187 106.964 42.991V49.623H104.078V36.013C104.078 34.663 104.042 33.279 103.971 31.859H106.51L106.67 33.862H106.725C107.686 32.352 109.147 31.598 111.108 31.598C112.64 31.598 113.918 32.187 114.945 33.365C115.965 34.547 116.48 36.099 116.48 38.023C116.48 40.173 115.88 41.872 114.68 43.119ZM97.7429 35.082C97.1189 34.251 96.2809 33.834 95.2299 33.834C94.5179 33.834 93.87 34.066 93.293 34.524C92.7174 34.9779 92.3161 35.6165 92.1569 36.332C92.0769 36.61 92.0329 36.897 92.0229 37.186V39.296C92.0229 40.213 92.313 40.989 92.892 41.624C93.472 42.256 94.224 42.574 95.15 42.574C96.237 42.574 97.0829 42.164 97.6879 41.351C98.2949 40.536 98.598 39.461 98.598 38.126C98.598 36.896 98.3139 35.881 97.7429 35.082V35.082ZM101.539 38.022C101.539 40.172 100.939 41.872 99.739 43.119C98.663 44.229 97.3269 44.784 95.7339 44.784C94.0129 44.784 92.7759 44.187 92.0239 42.991V49.623H89.1379V36.013C89.1379 34.663 89.1009 33.279 89.0309 31.859H91.5689L91.7299 33.862H91.7849C92.7469 32.352 94.208 31.598 96.168 31.598C97.701 31.598 98.9799 32.187 100.003 33.365C101.026 34.547 101.539 36.099 101.539 38.023V38.022ZM81.374 37.189L79.8539 32.612C79.6929 32.144 79.39 31.043 78.947 29.31H78.8929C78.7149 30.056 78.4299 31.157 78.0389 32.612L76.5449 37.189H81.374ZM83.575 44.498L81.8909 39.349H76.0369L74.4329 44.498H71.4399L77.241 26.969H80.8229L86.65 44.498H83.575Z" fill="white"/>
<path d="M176.736 16.924H173.781C173.873 15.984 174.517 15.298 175.332 15.298C176.239 15.298 176.736 15.971 176.736 16.924ZM178.037 17.918C178.079 17.7121 178.095 17.5019 178.086 17.292C178.086 15.516 177.062 14.339 175.431 14.339C173.622 14.339 172.412 15.771 172.412 17.676C172.412 19.579 173.594 20.806 175.591 20.806C176.418 20.806 177.129 20.679 177.733 20.423L177.512 19.464C176.961 19.6638 176.378 19.7634 175.792 19.758C174.607 19.758 173.807 19.094 173.78 17.918H178.037ZM170.342 20.692V16.997C170.342 15.373 169.516 14.351 168.165 14.351C167.34 14.351 166.692 14.684 166.245 15.361H166.217V11.63H164.8V20.692H166.217V16.947C166.217 15.963 166.902 15.477 167.637 15.477C168.493 15.477 168.925 16.04 168.925 17.151V20.691L170.342 20.692ZM162.822 15.516V14.479H161.265V12.933L159.875 13.343V14.48H158.946V15.516H159.876V18.648C159.876 20.22 160.542 20.821 161.658 20.821C162.114 20.821 162.481 20.77 162.755 20.667L162.716 19.618C162.51 19.6628 162.299 19.6846 162.088 19.683C161.538 19.683 161.265 19.3 161.265 18.532V15.516H162.822ZM153.286 16.971C153.286 15.348 152.405 14.351 151.064 14.351C150.198 14.351 149.422 14.774 149.042 15.438H149.002L148.936 14.479H147.688C147.728 15.118 147.741 15.707 147.741 16.256V20.692H149.161V16.997C149.161 16.179 149.738 15.476 150.578 15.476C151.433 15.476 151.866 16.026 151.866 17.126V20.692H153.286V16.971ZM144.183 17.571C144.183 18.812 143.514 19.809 142.515 19.809C141.519 19.809 140.849 18.877 140.849 17.598C140.849 16.294 141.505 15.361 142.529 15.361C143.529 15.361 144.186 16.307 144.183 17.571V17.571ZM145.666 17.536C145.666 15.643 144.429 14.353 142.586 14.353C140.64 14.353 139.403 15.72 139.403 17.637C139.403 19.477 140.613 20.833 142.481 20.833C144.391 20.833 145.667 19.477 145.666 17.536V17.536ZM132.052 18.066C132.052 18.958 131.422 19.711 130.529 19.711C129.529 19.711 128.862 18.856 128.862 17.606C128.862 16.331 129.505 15.426 130.557 15.426C131.46 15.426 132.052 16.166 132.052 17.033V18.066ZM133.515 20.692C133.477 20.1348 133.459 19.5765 133.462 19.018V11.63H132.044V15.195H132.016C131.676 14.632 131.071 14.351 130.218 14.351C128.608 14.351 127.428 15.72 127.428 17.662C127.428 19.516 128.565 20.832 130.102 20.832C131.058 20.832 131.742 20.448 132.148 19.695H132.188L132.254 20.692H133.515ZM123.99 17.598V18.557C123.99 19.285 123.319 19.821 122.597 19.821C122.031 19.821 121.624 19.503 121.624 18.851C121.624 17.969 122.414 17.598 123.99 17.598V17.598ZM124.185 20.692L125.465 20.693C125.401 20.323 125.372 19.837 125.372 19.21V16.922C125.372 15.209 124.53 14.352 122.862 14.352C121.997 14.352 121.261 14.532 120.671 14.89L120.959 15.797C121.445 15.491 121.997 15.337 122.627 15.337C123.507 15.337 123.952 15.746 123.952 16.564V16.679C121.587 16.679 120.222 17.471 120.222 19.005C120.222 20.053 121.034 20.833 122.177 20.833C122.979 20.833 123.611 20.553 124.044 19.977H124.082L124.185 20.692ZM115.47 15.362C116.473 15.362 117.13 16.307 117.128 17.572C117.128 18.812 116.458 19.809 115.456 19.809C114.458 19.809 113.784 18.877 113.784 17.598C113.784 16.294 114.443 15.361 115.47 15.361V15.362ZM118.591 17.536C118.591 15.643 117.357 14.353 115.517 14.353C113.573 14.353 112.338 15.72 112.338 17.637C112.338 19.477 113.548 20.833 115.413 20.833C117.317 20.833 118.593 19.477 118.591 17.536V17.536ZM110.24 11.63H108.82V20.692H110.24V11.63ZM106.327 20.692L106.329 16.972C106.329 15.35 105.449 14.352 104.109 14.352C103.241 14.352 102.466 14.774 102.085 15.438H102.045L101.979 14.479H100.731C100.771 15.118 100.784 15.707 100.784 16.256V20.692H102.202V16.997C102.202 16.179 102.781 15.476 103.622 15.476C104.475 15.476 104.909 16.026 104.909 17.126V20.692H106.327ZM98.9769 14.48L97.5829 14.482L96.8079 17.383C96.6224 18.0557 96.4775 18.739 96.3739 19.429H96.3369C96.1959 18.7397 96.0244 18.0571 95.8229 17.383L94.9559 14.482H93.7999L92.8919 17.446C92.6419 18.251 92.4719 18.905 92.3669 19.427H92.3399C92.2122 18.7588 92.0678 18.0939 91.9069 17.433L91.1839 14.48H89.7259L91.6049 20.692H92.9199L93.7999 17.994C94.0099 17.344 94.2069 16.665 94.3109 15.988H94.3379C94.4739 16.665 94.6459 17.335 94.8509 17.994L95.6789 20.692H96.9789L98.9769 14.48ZM86.8669 17.572C86.8669 18.812 86.1969 19.809 85.1989 19.809C84.2009 19.809 83.5309 18.877 83.5309 17.598C83.5309 16.294 84.1879 15.361 85.2119 15.361C86.2099 15.361 86.8669 16.307 86.8669 17.571V17.572ZM88.3479 17.536C88.3479 15.643 87.1099 14.353 85.2689 14.353C83.3209 14.353 82.0839 15.72 82.0839 17.637C82.0839 19.477 83.2939 20.833 85.1639 20.833C87.0719 20.833 88.3479 19.477 88.3479 17.536V17.536ZM75.6899 13.099C77.7919 13.099 78.9099 14.212 78.9099 16.218C78.9099 18.468 77.6749 19.668 75.5059 19.668C75.0459 19.668 74.7179 19.657 74.5469 19.63V13.188C74.8629 13.125 75.2429 13.098 75.6899 13.098V13.099ZM80.4079 16.179C80.4079 13.596 78.8839 12.012 75.5739 12.012C74.7558 12.01 73.9388 12.0702 73.1299 12.192V20.666C73.7079 20.73 74.4029 20.768 75.2049 20.768C78.6069 20.768 80.4079 19.158 80.4079 16.179V16.179Z" fill="white"/>
</svg>
