<svg xmlns="http://www.w3.org/2000/svg" xmlns:xlink="http://www.w3.org/1999/xlink" width="121" height="18" viewBox="0 0 121 18"><defs><path id="mv2aa" d="M739.78 551.926L733.737 555l1.154-6.513-4.89-4.611 6.759-.951L739.78 537l3.021 5.925 6.759.951-4.89 4.61 1.153 6.514zm25.147 0L758.882 555l1.154-6.513-4.89-4.611 6.76-.951 3.02-5.925 3.021 5.925 6.76.951-4.89 4.61L770.97 555zm25.146 0L784.028 555l1.154-6.513-4.89-4.611 6.76-.951 3.021-5.925 3.022 5.925 6.759.951-4.891 4.61 1.154 6.514zm25.146 0L809.175 555l1.154-6.513-4.89-4.611 6.759-.951 3.021-5.925 3.02 5.925 6.761.951-4.891 4.61 1.154 6.514z"/><path id="mv2ab" d="M846 548.487l1.18 6.513-6.18-3.074-6.18 3.074 1.18-6.513-5-4.611 6.91-.951L841 537l3.09 5.925 6.91.951-5 4.61z"/><linearGradient id="mv2ac" x1="837.79" x2="851" y1="543.85" y2="543.85" gradientUnits="userSpaceOnUse"><stop offset="0" stop-color="#ffc250"/><stop offset="1" stop-color="#fff"/></linearGradient></defs><g><g transform="translate(-730 -537)"><g><use fill="#ffc250" xlink:href="#mv2aa"/></g><g><use fill="url(#mv2ac)" xlink:href="#mv2ab"/></g></g></g></svg>